<svg width="72" height="64" viewBox="0 0 72 64" fill="none" xmlns="http://www.w3.org/2000/svg">
<path d="M56.8716 27.9519C56.8716 31.1061 47.4607 38.3402 35.8518 38.3402C24.2429 38.3402 14.832 31.1061 14.832 27.9519C14.832 24.7978 24.2429 22.2408 35.8518 22.2408C47.4607 22.2408 56.8716 24.7978 56.8716 27.9519Z" fill="#DEB93E"/>
<path d="M59.5863 24.03C59.7986 33.6713 49.1829 28.7697 36.2272 29.055C23.2715 29.3403 12.8819 34.7045 12.6696 25.0632C12.4573 15.4219 22.7878 7.3748 35.7435 7.08949C48.6992 6.80419 59.3739 14.3887 59.5863 24.03Z" fill="url(#paint0_radial_84_124)"/>
<path d="M28.1529 26.739L26.4216 25.9996L31.366 17.7834L36.4788 25.7782L33.7553 27.4444L28.1529 26.739Z" fill="url(#paint1_linear_84_124)"/>
<path d="M25.6128 14.6572L22.2287 10.3014L27.1731 2.08519L32.5366 11.15L30.0587 12.882L25.6128 14.6572Z" fill="url(#paint2_linear_84_124)"/>
<path d="M36.0604 11.1236L33.6018 9.50037L38.5462 1.28416L43.6871 10.9557L41.2091 12.6876L36.0604 11.1236Z" fill="url(#paint3_linear_84_124)"/>
<path d="M43.9328 18.58L41.4742 16.9568L50.6922 7.63328L49.9502 16.7701L47.4722 18.5021L43.9328 18.58Z" fill="url(#paint4_linear_84_124)"/>
<path d="M34.1839 18.7947L31.7253 17.1715L36.6697 8.9553L40.2013 16.9849L37.7234 18.7168L34.1839 18.7947Z" fill="url(#paint5_linear_84_124)"/>
<path d="M44.5339 26.849L46.9187 25.1191L43.2638 16.8936L37.0054 23.6601L39.5572 25.2812L44.5339 26.849Z" fill="url(#paint6_linear_84_124)"/>
<path d="M19.9221 20.21L18.1018 15.4264L23.0462 7.21019L29.1896 19.587L26.0283 22.4352L19.9221 20.21Z" fill="url(#paint7_linear_84_124)"/>
<path d="M33.423 22.0381C33.423 24.9216 32.4024 32.5351 30.6503 32.5351C28.8983 32.5351 27.0781 24.9216 27.0781 22.0381C27.0781 19.1547 28.4985 16.8171 30.2506 16.8171C32.0027 16.8171 33.423 19.1547 33.423 22.0381Z" fill="#1B3D2F"/>
<path d="M43.7238 21.7209C43.7238 24.6044 42.3034 32.5351 40.5514 32.5351C38.7993 32.5351 37.3789 24.6044 37.3789 21.7209C37.3789 18.8374 38.7993 16.4999 40.5514 16.4999C42.3034 16.4999 43.7238 18.8374 43.7238 21.7209Z" fill="#1B3D2F"/>
<path d="M29.9187 18.0609L28.7329 19.1327L31.8719 18.7823L29.9187 18.0609Z" fill="#D0D797"/>
<path d="M39.6204 18.3358L38.4346 19.4076L41.5735 19.0572L39.6204 18.3358Z" fill="#D0D797"/>
<path d="M56.8415 24.6537C53.1309 28.1072 55.1536 32.4596 56.6287 34.2041C64.2194 35.5611 65.9424 32.7578 63.6714 29.4543C61.8501 26.8052 61.4797 20.3368 56.8415 24.6537Z" fill="url(#paint8_radial_84_124)"/>
<path d="M52.2658 44.24C50.273 45.072 50.1165 46.7508 50.2873 47.4862C55.0041 46.739 61.8333 52.8077 64.987 44.1221C68.1407 35.4366 62.9758 29.7551 56.9712 33.0995C50.9665 36.4439 54.7568 43.2 52.2658 44.24Z" fill="url(#paint9_radial_84_124)"/>
<path d="M52.2657 44.2402C50.2729 45.0722 50.1164 46.751 50.2872 47.4864C55.0041 46.7392 61.8332 52.8078 64.9869 44.1223C65.6853 42.1989 65.9757 40.4229 65.9395 38.8596C64.6593 44.5763 62.0196 46.0695 60.8598 46.1016C59.5379 44.6755 54.5796 44.2664 52.2657 44.2402Z" fill="#DEB93E"/>
<path d="M51.568 46.1554C48.9233 47.4872 46.082 52.0558 44.992 54.1736C47.8659 53.3565 52.1295 49.4578 53.6376 47.7358L52.8501 46.6162L51.568 46.1554Z" fill="url(#paint10_linear_84_124)"/>
<path d="M59.2451 46.0587L55.0474 47.5537L54.6229 51.0303C54.4121 52.7566 48.9708 56.4643 46.2765 58.1023C48.2805 57.7995 52.9152 56.8445 55.4219 55.4472C57.9287 54.0499 60.6106 49.4902 61.6383 47.3851L59.2451 46.0587Z" fill="url(#paint11_linear_84_124)"/>
<path d="M15.1595 24.6537C18.87 28.1072 16.8474 32.4596 15.3722 34.2041C7.78153 35.5611 6.05853 32.7578 8.32962 29.4543C10.1509 26.8052 10.5213 20.3368 15.1595 24.6537Z" fill="url(#paint12_radial_84_124)"/>
<path d="M19.7347 44.24C21.7275 45.072 21.884 46.7508 21.7132 47.4862C16.9963 46.739 10.1672 52.8077 7.0135 44.1221C3.85979 35.4366 9.02464 29.7551 15.0293 33.0995C21.034 36.4439 17.2437 43.2 19.7347 44.24Z" fill="url(#paint13_radial_84_124)"/>
<path d="M19.7348 44.2402C21.7276 45.0722 21.8841 46.751 21.7133 47.4864C16.9964 46.7392 10.1673 52.8078 7.01357 44.1223C6.3152 42.1989 6.02475 40.4229 6.06101 38.8596C7.34123 44.5763 9.9809 46.0695 11.1407 46.1016C12.4626 44.6755 17.4208 44.2664 19.7348 44.2402Z" fill="#DEB93E"/>
<path d="M20.4325 46.1555C23.0772 47.4873 25.9185 52.0559 27.0085 54.1738C24.1346 53.3566 19.871 49.458 18.3629 47.7359L19.1504 46.6163L20.4325 46.1555Z" fill="url(#paint14_linear_84_124)"/>
<path d="M12.7554 46.0588L16.9531 47.5538L17.3776 51.0304C17.5884 52.7568 23.0297 56.4644 25.724 58.1024C23.72 57.7996 19.0853 56.8447 16.5785 55.4473C14.0718 54.05 11.3899 49.4903 10.3622 47.3852L12.7554 46.0588Z" fill="url(#paint15_linear_84_124)"/>
<defs>
<radialGradient id="paint0_radial_84_124" cx="0" cy="0" r="1" gradientUnits="userSpaceOnUse" gradientTransform="translate(36.0004 18.7548) rotate(88.7385) scale(14.5491 29.2577)">
<stop offset="0.572359" stop-color="#E2EAA4"/>
<stop offset="1" stop-color="#C9DF46"/>
</radialGradient>
<linearGradient id="paint1_linear_84_124" x1="30.5262" y1="19.847" x2="30.763" y2="27.9063" gradientUnits="userSpaceOnUse">
<stop stop-color="#B4BA82"/>
<stop offset="1" stop-color="#E2E9A4"/>
</linearGradient>
<linearGradient id="paint2_linear_84_124" x1="27.2137" y1="4.83729" x2="27.429" y2="14.6172" gradientUnits="userSpaceOnUse">
<stop stop-color="#B4BA82"/>
<stop offset="1" stop-color="#E2E9A4"/>
</linearGradient>
<linearGradient id="paint3_linear_84_124" x1="37.6613" y1="1.30365" x2="37.8767" y2="11.0836" gradientUnits="userSpaceOnUse">
<stop stop-color="#B4BA82"/>
<stop offset="1" stop-color="#E2E9A4"/>
</linearGradient>
<linearGradient id="paint4_linear_84_124" x1="45.5337" y1="8.76005" x2="45.7491" y2="18.54" gradientUnits="userSpaceOnUse">
<stop stop-color="#B4BA82"/>
<stop offset="1" stop-color="#E2E9A4"/>
</linearGradient>
<linearGradient id="paint5_linear_84_124" x1="35.7849" y1="8.97479" x2="36.0002" y2="18.7547" gradientUnits="userSpaceOnUse">
<stop stop-color="#B4BA82"/>
<stop offset="1" stop-color="#E2E9A4"/>
</linearGradient>
<linearGradient id="paint6_linear_84_124" x1="41.0649" y1="15.4634" x2="41.2803" y2="25.2433" gradientUnits="userSpaceOnUse">
<stop stop-color="#B4BA82"/>
<stop offset="1" stop-color="#E2E9A4"/>
</linearGradient>
<linearGradient id="paint7_linear_84_124" x1="22.2063" y1="9.27376" x2="22.4217" y2="19.0537" gradientUnits="userSpaceOnUse">
<stop stop-color="#B4BA82"/>
<stop offset="1" stop-color="#E2E9A4"/>
</linearGradient>
<radialGradient id="paint8_radial_84_124" cx="0" cy="0" r="1" gradientUnits="userSpaceOnUse" gradientTransform="translate(55.4881 30.4582) rotate(-16.6512) scale(10.6516 15.7343)">
<stop stop-color="#E2EBA4"/>
<stop offset="1" stop-color="#CEE156"/>
</radialGradient>
<radialGradient id="paint9_radial_84_124" cx="0" cy="0" r="1" gradientUnits="userSpaceOnUse" gradientTransform="translate(53.9984 43.8693) rotate(-23.0963) scale(13.7683 17.6415)">
<stop stop-color="#E2EBA4"/>
<stop offset="1" stop-color="#CEE156"/>
</radialGradient>
<linearGradient id="paint10_linear_84_124" x1="56.7538" y1="45.8153" x2="46.9425" y2="55.9784" gradientUnits="userSpaceOnUse">
<stop stop-color="#DEB93E"/>
<stop offset="1" stop-color="#1B3D2F"/>
</linearGradient>
<linearGradient id="paint11_linear_84_124" x1="56.7538" y1="45.8153" x2="46.9425" y2="55.9784" gradientUnits="userSpaceOnUse">
<stop stop-color="#DEB93E"/>
<stop offset="1" stop-color="#1B3D2F"/>
</linearGradient>
<radialGradient id="paint12_radial_84_124" cx="0" cy="0" r="1" gradientUnits="userSpaceOnUse" gradientTransform="translate(16.5129 30.4582) rotate(-163.349) scale(10.6516 15.7343)">
<stop stop-color="#E2EBA4"/>
<stop offset="1" stop-color="#CEE156"/>
</radialGradient>
<radialGradient id="paint13_radial_84_124" cx="0" cy="0" r="1" gradientUnits="userSpaceOnUse" gradientTransform="translate(18.0021 43.8693) rotate(-156.904) scale(13.7683 17.6415)">
<stop stop-color="#E2EBA4"/>
<stop offset="1" stop-color="#CEE156"/>
</radialGradient>
<linearGradient id="paint14_linear_84_124" x1="15.2467" y1="45.8154" x2="25.058" y2="55.9785" gradientUnits="userSpaceOnUse">
<stop stop-color="#DEB93E"/>
<stop offset="1" stop-color="#1B3D2F"/>
</linearGradient>
<linearGradient id="paint15_linear_84_124" x1="15.2467" y1="45.8154" x2="25.058" y2="55.9785" gradientUnits="userSpaceOnUse">
<stop stop-color="#DEB93E"/>
<stop offset="1" stop-color="#1B3D2F"/>
</linearGradient>
</defs>
</svg>
