<svg width="44" height="31" viewBox="0 0 44 31" fill="none" xmlns="http://www.w3.org/2000/svg">
<path d="M41.4128 16.1216C41.4128 17.5526 37.1431 20.8347 31.8763 20.8347C26.6095 20.8347 22.3398 17.5526 22.3398 16.1216C22.3398 14.6906 26.6095 13.5305 31.8763 13.5305C37.1431 13.5305 41.4128 14.6906 41.4128 16.1216Z" fill="#DEB93E"/>
<path d="M42.6441 14.3423C42.7404 18.7165 37.9242 16.4927 32.0463 16.6221C26.1685 16.7515 21.4548 19.1852 21.3585 14.811C21.2622 10.4369 25.949 6.78594 31.8269 6.6565C37.7047 6.52706 42.5478 9.96811 42.6441 14.3423Z" fill="url(#paint0_radial_130_146)"/>
<path d="M28.383 15.5713L27.5976 15.2359L29.8408 11.5083L32.1604 15.1354L30.9248 15.8914L28.383 15.5713Z" fill="url(#paint1_linear_130_146)"/>
<path d="M27.231 10.0899L25.6957 8.11371L27.9389 4.38607L30.3723 8.49873L29.2481 9.2845L27.231 10.0899Z" fill="url(#paint2_linear_130_146)"/>
<path d="M31.9708 8.48676L30.8554 7.75031L33.0986 4.02267L35.431 8.41056L34.3067 9.19633L31.9708 8.48676Z" fill="url(#paint3_linear_130_146)"/>
<path d="M35.5425 11.8697L34.427 11.1332L38.6091 6.90321L38.2725 11.0485L37.1483 11.8343L35.5425 11.8697Z" fill="url(#paint4_linear_130_146)"/>
<path d="M31.1193 11.9671L30.0038 11.2307L32.247 7.50302L33.8493 11.146L32.7251 11.9317L31.1193 11.9671Z" fill="url(#paint5_linear_130_146)"/>
<path d="M35.815 15.6212L36.8969 14.8364L35.2387 11.1045L32.3994 14.1744L33.5571 14.9099L35.815 15.6212Z" fill="url(#paint6_linear_130_146)"/>
<path d="M24.649 12.6091L23.8231 10.4388L26.0664 6.71115L28.8535 12.3264L27.4193 13.6186L24.649 12.6091Z" fill="url(#paint7_linear_130_146)"/>
<path d="M43.2248 10.2716C43.2248 11.5798 42.5804 15.1779 41.7855 15.1779C40.9906 15.1779 40.3462 11.5798 40.3462 10.2716C40.3462 8.96335 40.9906 7.90283 41.7855 7.90283C42.5804 7.90283 43.2248 8.96335 43.2248 10.2716Z" fill="#1B3D2F"/>
<path d="M41.3632 8.73578L40.8252 9.22205L42.2493 9.06306L41.3632 8.73578Z" fill="#D0D797"/>
<path d="M28.652 14.6385C26.4112 14.1209 25.2889 15.9868 25.0078 16.9844C26.4258 20.1826 27.9173 20.1183 28.5822 18.4254C29.1154 17.0678 31.4529 15.2855 28.652 14.6385Z" fill="url(#paint8_radial_130_146)"/>
<path d="M20.1268 17.8935C19.3078 17.3557 18.637 17.7233 18.4039 17.9743C19.8829 19.5577 19.3363 23.6664 23.4024 22.6457C27.4685 21.625 28.2923 18.2403 25.5099 16.8325C22.7274 15.4248 21.1505 18.5658 20.1268 17.8935Z" fill="url(#paint9_radial_130_146)"/>
<path d="M20.1268 17.8936C19.3079 17.3558 18.637 17.7234 18.404 17.9744C19.883 19.5578 19.3364 23.6665 23.4025 22.6458C24.3029 22.4198 25.0443 22.0778 25.6228 21.6671C23.1486 22.6379 21.9167 22.0249 21.6101 21.5971C21.8104 20.7379 20.7047 18.7701 20.1268 17.8936Z" fill="#DEB93E"/>
<path d="M19.2294 18.1176C18.057 17.4617 15.6178 17.5541 14.5448 17.6823C15.582 18.5551 18.1306 19.1676 19.161 19.2971L19.3818 18.7167L19.2294 18.1176Z" fill="url(#paint10_linear_130_146)"/>
<path d="M21.2158 20.9791L19.5876 19.7808L18.1728 20.5043C17.4703 20.8636 14.6944 19.7599 13.3943 19.1631C14.0171 19.8396 15.5534 21.3393 16.7154 21.9266C17.8774 22.514 20.2727 22.364 21.3251 22.2156L21.2158 20.9791Z" fill="url(#paint11_linear_130_146)"/>
<path d="M2.93799 13.5305L19.9941 13.5305L20.6952 11.0801L2.93799 13.5305Z" fill="#E5E5DA"/>
<path d="M20.6952 16.6422L19.9941 14.302L8.09686 14.302L20.6952 16.6422Z" fill="#E5E5DA"/>
<defs>
<radialGradient id="paint0_radial_130_146" cx="0" cy="0" r="1" gradientUnits="userSpaceOnUse" gradientTransform="translate(31.9434 11.9489) rotate(88.7385) scale(6.60084 13.2739)">
<stop offset="0.572359" stop-color="#E2EAA4"/>
<stop offset="1" stop-color="#C9DF46"/>
</radialGradient>
<linearGradient id="paint1_linear_130_146" x1="29.4598" y1="12.4445" x2="29.5672" y2="16.1009" gradientUnits="userSpaceOnUse">
<stop stop-color="#B4BA82"/>
<stop offset="1" stop-color="#E2E9A4"/>
</linearGradient>
<linearGradient id="paint2_linear_130_146" x1="27.9573" y1="5.63468" x2="28.055" y2="10.0718" gradientUnits="userSpaceOnUse">
<stop stop-color="#B4BA82"/>
<stop offset="1" stop-color="#E2E9A4"/>
</linearGradient>
<linearGradient id="paint3_linear_130_146" x1="32.6971" y1="4.03151" x2="32.7949" y2="8.46861" gradientUnits="userSpaceOnUse">
<stop stop-color="#B4BA82"/>
<stop offset="1" stop-color="#E2E9A4"/>
</linearGradient>
<linearGradient id="paint4_linear_130_146" x1="36.2688" y1="7.41442" x2="36.3665" y2="11.8515" gradientUnits="userSpaceOnUse">
<stop stop-color="#B4BA82"/>
<stop offset="1" stop-color="#E2E9A4"/>
</linearGradient>
<linearGradient id="paint5_linear_130_146" x1="31.8456" y1="7.51186" x2="31.9433" y2="11.949" gradientUnits="userSpaceOnUse">
<stop stop-color="#B4BA82"/>
<stop offset="1" stop-color="#E2E9A4"/>
</linearGradient>
<linearGradient id="paint6_linear_130_146" x1="34.2411" y1="10.4556" x2="34.3388" y2="14.8927" gradientUnits="userSpaceOnUse">
<stop stop-color="#B4BA82"/>
<stop offset="1" stop-color="#E2E9A4"/>
</linearGradient>
<linearGradient id="paint7_linear_130_146" x1="25.6853" y1="7.64738" x2="25.783" y2="12.0845" gradientUnits="userSpaceOnUse">
<stop stop-color="#B4BA82"/>
<stop offset="1" stop-color="#E2E9A4"/>
</linearGradient>
<radialGradient id="paint8_radial_130_146" cx="0" cy="0" r="1" gradientUnits="userSpaceOnUse" gradientTransform="translate(26.1262 15.6041) rotate(39.3018) scale(4.83251 7.1385)">
<stop stop-color="#E2EBA4"/>
<stop offset="1" stop-color="#CEE156"/>
</radialGradient>
<radialGradient id="paint9_radial_130_146" cx="0" cy="0" r="1" gradientUnits="userSpaceOnUse" gradientTransform="translate(20.7062 18.4507) rotate(32.8567) scale(6.24654 8.0038)">
<stop stop-color="#E2EBA4"/>
<stop offset="1" stop-color="#CEE156"/>
</radialGradient>
<linearGradient id="paint10_linear_130_146" x1="20.6745" y1="19.9807" x2="14.3618" y2="18.874" gradientUnits="userSpaceOnUse">
<stop stop-color="#DEB93E"/>
<stop offset="1" stop-color="#1B3D2F"/>
</linearGradient>
<linearGradient id="paint11_linear_130_146" x1="20.6745" y1="19.9807" x2="14.3618" y2="18.874" gradientUnits="userSpaceOnUse">
<stop stop-color="#DEB93E"/>
<stop offset="1" stop-color="#1B3D2F"/>
</linearGradient>
</defs>
</svg>
