<svg width="28" height="29" viewBox="0 0 28 29" fill="none" xmlns="http://www.w3.org/2000/svg">
<path d="M28 14.8911C28 21.962 22.7587 27.8076 15.9497 28.7562C15.3131 28.8445 14.6617 28.8906 14.0005 28.8906C13.2373 28.8906 12.4878 28.8298 11.758 28.7121C5.09127 27.6389 0 21.859 0 14.8911C0 7.15906 6.26844 0.890625 13.9995 0.890625C21.7306 0.890625 28 7.15906 28 14.8911Z" fill="#ECECC4"/>
<path d="M15.6758 14.4844V17.1061H18.9189L18.4054 20.6376H15.6758V28.7742C15.1285 28.8501 14.5686 28.8897 14.0002 28.8897C13.3442 28.8897 12.6999 28.8374 12.0726 28.7362V20.6376H9.08154V17.1061H12.0726V13.8984C12.0726 11.9083 13.6857 10.2943 15.6766 10.2943V10.296C15.6825 10.296 15.6876 10.2943 15.6935 10.2943H18.9198V13.3486H16.8116C16.1851 13.3486 15.6766 13.857 15.6766 14.4836L15.6758 14.4844Z" fill="#1877F2"/>
</svg>
