<svg width="28" height="29" viewBox="0 0 28 29" fill="none" xmlns="http://www.w3.org/2000/svg">
<path d="M27.998 14.2927C27.998 21.3636 22.7569 27.2092 15.9481 28.1578C15.3115 28.2461 14.6602 28.2922 13.999 28.2922C13.2358 28.2922 12.4864 28.2314 11.7566 28.1137C5.09108 27.0405 0 21.2606 0 14.2927C0 6.56067 6.26821 0.292236 14 0.292236C21.7318 0.292236 28 6.56067 28 14.2927H27.998Z" fill="#ECECC4"/>
<path d="M14.0184 6.23853H13.9817C9.54524 6.23853 5.94873 9.83608 5.94873 14.2739V14.3106C5.94873 18.7484 9.54524 22.3459 13.9817 22.3459H14.0184C18.4549 22.3459 22.0514 18.7484 22.0514 14.3106V14.2739C22.0514 9.83608 18.4549 6.23853 14.0184 6.23853Z" fill="#0EA982"/>
<path d="M19.4136 14.9065C19.2912 14.4427 19.0345 14.0076 18.6864 13.6707C19.2167 12.7977 19.1998 11.6882 18.6356 10.8796C18.3079 10.41 17.812 10.0652 17.2394 9.90948C16.7768 9.78364 16.2713 9.78872 15.8058 9.9219C15.3156 9.02632 14.3464 8.48626 13.3636 8.57035C12.7933 8.61944 12.2466 8.87677 11.8257 9.29494C11.4855 9.63296 11.2373 10.0731 11.12 10.5427C10.1005 10.5206 9.14711 11.0895 8.72908 11.9822C8.48592 12.5008 8.43571 13.103 8.58747 13.6769C8.70989 14.1408 8.96659 14.5759 9.31468 14.9128C8.78437 15.7852 8.80129 16.8952 9.36544 17.7039C9.69322 18.1734 10.1891 18.5182 10.7617 18.674C11.2266 18.8004 11.7292 18.7958 12.1952 18.6615C12.6494 19.4911 13.5176 20.0216 14.4333 20.0216C14.501 20.0216 14.5698 20.0187 14.6369 20.0131C15.2073 19.964 15.7539 19.7067 16.1748 19.2885C16.515 18.9505 16.7632 18.5109 16.8811 18.0408C16.9009 18.0408 16.9212 18.0414 16.9409 18.0414C17.9474 18.0414 18.8624 17.4759 19.272 16.6006C19.5152 16.082 19.5654 15.4799 19.4136 14.906V14.9065ZM14.963 16.3636L12.3047 17.8986C12.2821 17.9093 12.2596 17.9195 12.2376 17.9291C11.9865 18.0363 11.7219 18.0904 11.4511 18.0904C10.8311 18.0904 10.2591 17.801 9.92114 17.3162C9.52116 16.7423 9.50198 15.9505 9.86473 15.314L12.6985 16.9511L14.9416 15.5747L14.9624 16.3636H14.963ZM13.3608 15.7491L12.6883 16.1616L10.0306 14.6266C10.0097 14.612 9.98996 14.5979 9.97078 14.5832C9.23738 14.033 8.9728 13.0601 9.34288 12.2706C9.63963 11.6369 10.3161 11.2249 11.0489 11.221V14.494L13.3614 15.7491H13.3608ZM14.8896 14.8055L14.0005 15.3191L13.1114 14.8055V13.7785L14.0005 13.2649L14.8896 13.7785V14.8055ZM14.6403 12.8349L15.3128 12.4224L17.9705 13.9574C17.9914 13.972 18.0111 13.9861 18.0303 14.0008C18.7637 14.551 19.0277 15.5239 18.6582 16.3134C18.3615 16.9471 17.685 17.3591 16.9522 17.363V14.09L14.6397 12.8349H14.6403ZM13.0381 12.2204L15.6964 10.6854C15.719 10.6747 15.7415 10.6645 15.7635 10.655C16.6069 10.2949 17.5812 10.5522 18.0799 11.2672C18.4799 11.8412 18.4991 12.6329 18.1364 13.2695L15.3026 11.6324L13.0595 13.0082L13.0387 12.2192L13.0381 12.2204ZM12.4192 14.4664L11.7259 14.09V11.0201C11.7281 10.9947 11.7304 10.9698 11.7332 10.9467C11.8432 10.0359 12.5529 9.32089 13.4217 9.2464C14.119 9.18659 14.8135 9.56637 15.1836 10.199L12.3493 11.8349L12.4192 14.4664ZM15.5819 14.1176L16.2752 14.494V17.5639C16.273 17.5893 16.2707 17.6142 16.2679 17.6373C16.1579 18.5481 15.4482 19.2631 14.5794 19.3376C13.8821 19.398 13.1876 19.0182 12.8175 18.385L15.6518 16.7491L15.5819 14.1176Z" fill="white"/>
</svg>
