<svg width="28" height="29" viewBox="0 0 28 29" fill="none" xmlns="http://www.w3.org/2000/svg">
<path d="M28 14.8906C28 7.15864 21.732 0.890625 14 0.890625C6.26802 0.890625 0 7.15864 0 14.8906C0 22.6226 6.26802 28.8906 14 28.8906C21.732 28.8906 28 22.6226 28 14.8906Z" fill="#ECECC5"/>
<path d="M11.1521 9.63123V10.017C10.7861 10.0516 10.5338 10.1035 10.3953 10.1727C10.2617 10.242 10.1949 10.4002 10.1949 10.6475C10.1949 10.7118 10.2023 10.7884 10.2172 10.8775C10.232 10.9615 10.2543 11.0505 10.284 11.1445L12.0425 16.4558H12.1687L13.9124 12.005C13.9223 11.9803 13.8506 11.7553 13.6972 11.33C13.5488 10.9047 13.445 10.6425 13.3856 10.5436C13.2718 10.3656 13.1457 10.2395 13.0072 10.1653C12.8736 10.0911 12.6287 10.0417 12.2726 10.017V9.63123H17.0215V10.017C16.5862 10.0516 16.2943 10.0986 16.1459 10.1579C16.0025 10.2172 15.9307 10.3508 15.9307 10.5585C15.9307 10.6079 15.9456 10.7044 15.9753 10.8478C16.0099 10.9863 16.0668 11.1791 16.1459 11.4264L17.7264 16.3149H17.8303L19.485 11.3225C19.5147 11.2335 19.5394 11.1396 19.5592 11.0406C19.579 10.9368 19.5889 10.8231 19.5889 10.6994C19.5889 10.4175 19.4825 10.2296 19.2698 10.1357C19.1412 10.0763 18.8963 10.0367 18.5352 10.017V9.63123H21.3178V10.017C21.0853 10.0516 20.9047 10.1109 20.7761 10.195C20.5535 10.3483 20.3804 10.6129 20.2567 10.9887L17.2144 20.15H16.8137L14.2612 13.0287H14.1573L11.3747 20.15H10.9518L7.73882 10.9887C7.60031 10.5882 7.4618 10.3335 7.32329 10.2247C7.18478 10.1159 6.9696 10.0417 6.67773 10.0021V9.63123H11.1521Z" fill="#1C1C1B"/>
</svg>
