<svg width="28" height="29" viewBox="0 0 28 29" fill="none" xmlns="http://www.w3.org/2000/svg">
<path d="M27.998 14.8994C27.998 21.9703 22.7569 27.8159 15.9481 28.7645C15.3115 28.8528 14.6602 28.8989 13.999 28.8989C13.2358 28.8989 12.4864 28.8381 11.7566 28.7204C5.09108 27.6472 0 21.8673 0 14.8994C0 7.16736 6.26821 0.898926 14 0.898926C21.7318 0.898926 28 7.16736 28 14.8994H27.998Z" fill="#ECECC4"/>
<path d="M7.49677 8.78296L12.5426 15.5294L7.46533 21.0148H8.60836L13.054 16.2125L16.6456 21.0148H20.5346L15.2051 13.8888L19.9313 8.78296H18.7883L14.6945 13.2057L11.3866 8.78296H7.49752H7.49677ZM9.17719 9.62473H10.9634L18.8527 20.173H17.0664L9.17719 9.62473Z" fill="#1C1C1B"/>
</svg>
