<svg width="28" height="29" viewBox="0 0 28 29" fill="none" xmlns="http://www.w3.org/2000/svg">
<path d="M27.998 14.2927C27.998 21.3636 22.7569 27.2092 15.9481 28.1578C15.3115 28.2461 14.6602 28.2922 13.999 28.2922C13.2358 28.2922 12.4864 28.2314 11.7566 28.1137C5.09108 27.0405 0 21.2606 0 14.2927C0 6.56067 6.26821 0.292236 14 0.292236C21.7318 0.292236 28 6.56067 28 14.2927H27.998Z" fill="#ECECC4"/>
<path d="M6.69546 7.42273L12.3632 15.0006L6.66016 21.162H7.94405L12.9375 15.7679L16.9718 21.162H21.3401L15.3538 13.1578L20.6624 7.42273H19.3785L14.7803 12.3906L11.0647 7.42273H6.69632H6.69546ZM8.58298 8.36824H10.5893L19.4509 20.2165H17.4445L8.58298 8.36824Z" fill="#1C1C1B"/>
</svg>
