<svg width="28" height="29" viewBox="0 0 28 29" fill="none" xmlns="http://www.w3.org/2000/svg">
<path d="M28 14.8906C28 7.15864 21.732 0.890625 14 0.890625C6.26802 0.890625 0 7.15864 0 14.8906C0 22.6226 6.26802 28.8906 14 28.8906C21.732 28.8906 28 22.6226 28 14.8906Z" fill="#ECECC5"/>
<path d="M19.1574 20.2733C18.7954 20.3126 18.4248 20.3194 18.0697 20.3185C15.2991 20.316 12.5286 20.3134 9.7589 20.3117C8.88718 20.3117 7.93777 20.2835 7.26414 19.7294C6.50512 19.1036 6.34717 18.0184 6.2857 17.0366C6.20032 15.691 6.19349 14.3412 6.2635 12.9948C6.30192 12.2554 6.36937 11.4981 6.68783 10.8287C6.91664 10.348 7.29829 9.91601 7.78665 9.6889C8.35442 9.42508 8.94866 9.47204 9.55997 9.47118C11.0234 9.46948 12.4868 9.46862 13.9501 9.46692C15.4716 9.46521 16.9939 9.46435 18.5153 9.46265C19.2342 9.46265 20.0061 9.47716 20.5926 9.89295C21.3499 10.4291 21.5557 11.4494 21.6504 12.3723C21.8255 14.0722 21.828 15.7901 21.6573 17.4899C21.5864 18.1909 21.4686 18.932 21.0067 19.4639C20.549 19.9915 19.8703 20.1947 19.1582 20.2724L19.1574 20.2733Z" fill="#FF0209"/>
<path d="M16.4775 14.8919L12.3486 12.5082V17.2757L16.4775 14.8919Z" fill="white"/>
</svg>
