<svg width="224" height="161" viewBox="0 0 224 161" fill="none" xmlns="http://www.w3.org/2000/svg">
<path d="M223.469 134.469C223.469 169.383 173.545 158.968 111.96 158.968C50.3751 158.968 0.450684 169.383 0.450684 134.469C0.450684 99.5549 50.3751 71.2515 111.96 71.2515C173.545 71.2515 223.469 99.5549 223.469 134.469Z" fill="url(#paint0_radial_202_163)"/>
<path d="M79.6725 141.189L73.4651 138.375L92.0164 109.03L109.885 138.375L99.8947 144.189L79.6725 141.189Z" fill="url(#paint1_linear_202_163)"/>
<path d="M71.441 97.256L59.5396 81.2201L78.0909 51.8752L96.7817 85.1134L87.6747 91.1847L71.441 97.256Z" fill="url(#paint2_linear_202_163)"/>
<path d="M109.538 85.2987L100.768 79.2274L119.319 49.8826L137.156 85.2987L128.049 91.3701L109.538 85.2987Z" fill="url(#paint3_linear_202_163)"/>
<path d="M137.438 112.915L128.668 106.844L162.777 73.8315L159.362 106.844L150.255 112.915H137.438Z" fill="url(#paint4_linear_202_163)"/>
<path d="M102.135 112.915L93.3655 106.844L111.917 77.4988L124.06 106.844L114.952 112.915H102.135Z" fill="url(#paint5_linear_202_163)"/>
<path d="M138.956 142.893L147.725 136.822L135.152 106.758L111.96 130.751L121.067 136.822L138.956 142.893Z" fill="url(#paint6_linear_202_163)"/>
<path d="M184.892 133.905L193.662 127.833L181.089 97.7693L157.897 121.762L167.004 127.833L184.892 133.905Z" fill="url(#paint7_linear_202_163)"/>
<path d="M50.4 116.901L44.1926 99.4413L62.744 70.0964L83.9937 115.385L72.3243 125.442L50.4 116.901Z" fill="url(#paint8_linear_202_163)"/>
<path d="M38.6432 129.415L32.4358 126.601L38.6432 92.3941L68.856 126.601L58.8654 132.415L38.6432 129.415Z" fill="url(#paint9_linear_202_163)"/>
<path d="M46.1226 99.1587V20.6628L52.7061 16.105L175.767 99.1587H46.1226Z" fill="url(#paint10_linear_202_163)"/>
<circle cx="49.5274" cy="17.9329" r="7.86944" fill="#EFE846"/>
<path d="M139.388 60.9792C133.561 58.831 127.579 62.3768 127.579 62.3768C127.579 62.3768 119.852 68.2996 125.622 71.5021C131.392 74.7047 134.441 68.3402 142.128 73.0768C149.815 77.8134 148.11 72.6751 158.903 70.7789C169.697 68.8826 155.501 58.3341 152.126 60.9792C148.752 63.6244 146.673 63.6644 139.388 60.9792Z" fill="url(#paint11_linear_202_163)" fill-opacity="0.54"/>
<path d="M67.2286 89.216C61.4008 87.0679 55.4187 90.6136 55.4187 90.6136C55.4187 90.6136 47.6917 96.5364 53.4618 99.7389C59.2318 102.941 62.2811 96.5771 69.9681 101.314C77.6551 106.05 75.9497 100.912 86.7435 99.0157C97.5374 97.1195 83.3408 86.5709 79.9662 89.2161C76.5916 91.8612 74.5133 91.9012 67.2286 89.216Z" fill="url(#paint12_linear_202_163)" fill-opacity="0.54"/>
<path d="M187.402 119.283C181.574 117.135 175.592 120.681 175.592 120.681C175.592 120.681 167.865 126.603 173.635 129.806C179.405 133.008 182.455 126.644 190.142 131.381C197.829 136.117 196.123 130.979 206.917 129.083C217.711 127.186 203.514 116.638 200.14 119.283C196.765 121.928 194.687 121.968 187.402 119.283Z" fill="url(#paint13_linear_202_163)" fill-opacity="0.54"/>
<path d="M100.916 118.835C95.4873 122.521 91.8712 118.262 87.4875 118.835C82.2477 119.519 73.2108 126.155 78.9809 129.358C84.751 132.56 87.8003 126.196 95.4873 130.933C103.174 135.669 101.469 130.531 112.263 128.635C123.057 126.738 118.402 116.19 115.027 118.835C111.653 121.48 107.339 114.474 100.916 118.835Z" fill="url(#paint14_linear_202_163)" fill-opacity="0.54"/>
<path d="M160.831 86.904C155.402 90.5898 151.786 86.3311 147.402 86.9039C142.163 87.5885 133.126 94.2244 138.896 97.4269C144.666 100.629 147.715 94.2651 155.402 99.0016C163.089 103.738 161.384 98.6 172.178 96.7037C182.971 94.8074 178.317 84.2588 174.942 86.904C171.567 89.5491 167.254 82.5428 160.831 86.904Z" fill="url(#paint15_linear_202_163)" fill-opacity="0.54"/>
<path d="M30.8598 99.2794C25.1431 102.5 21.8942 97.9554 17.478 98.1612C12.1994 98.4071 2.64133 104.267 8.12469 107.939C13.6081 111.611 17.1768 105.523 24.4427 110.883C31.7086 116.243 30.4369 110.981 41.3512 109.99C52.2654 108.999 48.5052 98.0995 44.922 100.454C41.3389 102.809 37.6239 95.4683 30.8598 99.2794Z" fill="url(#paint16_linear_202_163)" fill-opacity="0.54"/>
<defs>
<radialGradient id="paint0_radial_202_163" cx="0" cy="0" r="1" gradientUnits="userSpaceOnUse" gradientTransform="translate(111.96 113.495) rotate(90) scale(52.674 139.043)">
<stop offset="0.572359" stop-color="#E2EAA4"/>
<stop offset="1" stop-color="#C9DF46"/>
</radialGradient>
<linearGradient id="paint1_linear_202_163" x1="88.8121" y1="116.432" x2="89.0269" y2="145.622" gradientUnits="userSpaceOnUse">
<stop stop-color="#B4BA82"/>
<stop offset="0.816666" stop-color="#E2E9A4"/>
</linearGradient>
<linearGradient id="paint2_linear_202_163" x1="78.0183" y1="61.8398" x2="78.0183" y2="97.256" gradientUnits="userSpaceOnUse">
<stop stop-color="#B4BA82"/>
<stop offset="1" stop-color="#E2E9A4"/>
</linearGradient>
<linearGradient id="paint3_linear_202_163" x1="116.115" y1="49.8826" x2="116.115" y2="85.2987" gradientUnits="userSpaceOnUse">
<stop stop-color="#B4BA82"/>
<stop offset="1" stop-color="#E2E9A4"/>
</linearGradient>
<linearGradient id="paint4_linear_202_163" x1="144.015" y1="77.4988" x2="144.015" y2="112.915" gradientUnits="userSpaceOnUse">
<stop stop-color="#B4BA82"/>
<stop offset="1" stop-color="#E2E9A4"/>
</linearGradient>
<linearGradient id="paint5_linear_202_163" x1="108.712" y1="77.4988" x2="108.712" y2="112.915" gradientUnits="userSpaceOnUse">
<stop stop-color="#B4BA82"/>
<stop offset="1" stop-color="#E2E9A4"/>
</linearGradient>
<linearGradient id="paint6_linear_202_163" x1="127.307" y1="101.406" x2="127.307" y2="136.822" gradientUnits="userSpaceOnUse">
<stop stop-color="#E2E9A4"/>
<stop offset="1" stop-color="#E2E9A4"/>
</linearGradient>
<linearGradient id="paint7_linear_202_163" x1="173.244" y1="92.4172" x2="173.244" y2="127.833" gradientUnits="userSpaceOnUse">
<stop stop-color="#B4BA82"/>
<stop offset="1" stop-color="#E2E9A4"/>
</linearGradient>
<linearGradient id="paint8_linear_202_163" x1="59.5396" y1="77.4987" x2="59.5396" y2="112.915" gradientUnits="userSpaceOnUse">
<stop stop-color="#B4BA82"/>
<stop offset="1" stop-color="#E2E9A4"/>
</linearGradient>
<linearGradient id="paint9_linear_202_163" x1="47.7828" y1="104.659" x2="47.9976" y2="133.848" gradientUnits="userSpaceOnUse">
<stop stop-color="#B4BA82"/>
<stop offset="1" stop-color="#E2E9A4"/>
</linearGradient>
<linearGradient id="paint10_linear_202_163" x1="81.0659" y1="16.105" x2="110.945" y2="99.1587" gradientUnits="userSpaceOnUse">
<stop stop-color="#FFFCB1"/>
<stop offset="1" stop-color="#FFFCB1" stop-opacity="0"/>
</linearGradient>
<linearGradient id="paint11_linear_202_163" x1="145.462" y1="59.91" x2="142.141" y2="75.3979" gradientUnits="userSpaceOnUse">
<stop stop-color="white"/>
<stop offset="1" stop-color="white" stop-opacity="0"/>
</linearGradient>
<linearGradient id="paint12_linear_202_163" x1="73.3023" y1="88.1469" x2="69.9809" y2="103.635" gradientUnits="userSpaceOnUse">
<stop stop-color="white"/>
<stop offset="1" stop-color="white" stop-opacity="0"/>
</linearGradient>
<linearGradient id="paint13_linear_202_163" x1="193.476" y1="118.214" x2="190.154" y2="133.702" gradientUnits="userSpaceOnUse">
<stop stop-color="white"/>
<stop offset="1" stop-color="white" stop-opacity="0"/>
</linearGradient>
<linearGradient id="paint14_linear_202_163" x1="98.8215" y1="117.766" x2="95.5001" y2="133.254" gradientUnits="userSpaceOnUse">
<stop stop-color="white"/>
<stop offset="1" stop-color="white" stop-opacity="0"/>
</linearGradient>
<linearGradient id="paint15_linear_202_163" x1="158.736" y1="85.8348" x2="155.415" y2="101.323" gradientUnits="userSpaceOnUse">
<stop stop-color="white"/>
<stop offset="1" stop-color="white" stop-opacity="0"/>
</linearGradient>
<linearGradient id="paint16_linear_202_163" x1="28.8617" y1="98.0396" x2="24.2622" y2="113.197" gradientUnits="userSpaceOnUse">
<stop stop-color="white"/>
<stop offset="1" stop-color="white" stop-opacity="0"/>
</linearGradient>
</defs>
</svg>
