<svg width="224" height="161" viewBox="0 0 224 161" fill="none" xmlns="http://www.w3.org/2000/svg">
<path d="M224 134.359C224 169.273 174.076 158.858 112.491 158.858C50.9057 158.858 0.981201 169.273 0.981201 134.359C0.981201 99.4446 50.9057 71.1411 112.491 71.1411C174.076 71.1411 224 99.4446 224 134.359Z" fill="url(#paint0_radial_202_164)"/>
<path d="M80.203 141.078L73.9956 138.264L92.5469 108.919L110.416 138.264L100.425 144.078L80.203 141.078Z" fill="url(#paint1_linear_202_164)"/>
<path d="M71.9715 97.1456L60.0701 81.1097L78.6214 51.7649L97.3122 85.003L88.2052 91.0743L71.9715 97.1456Z" fill="url(#paint2_linear_202_164)"/>
<path d="M110.068 85.1884L101.298 79.1171L119.85 49.7722L137.686 85.1884L128.579 91.2597L110.068 85.1884Z" fill="url(#paint3_linear_202_164)"/>
<path d="M137.969 112.805L129.199 106.733L163.307 73.7212L159.893 106.733L150.786 112.805H137.969Z" fill="url(#paint4_linear_202_164)"/>
<path d="M102.666 112.805L93.896 106.733L112.447 77.3884L124.59 106.733L115.483 112.805H102.666Z" fill="url(#paint5_linear_202_164)"/>
<path d="M139.486 142.783L148.256 136.712L135.682 106.648L112.491 130.64L121.598 136.712L139.486 142.783Z" fill="url(#paint6_linear_202_164)"/>
<path d="M185.423 133.794L194.193 127.723L181.619 97.6589L158.427 121.652L167.534 127.723L185.423 133.794Z" fill="url(#paint7_linear_202_164)"/>
<path d="M50.9305 116.79L44.7231 99.3309L63.2745 69.9861L84.5242 115.274L72.8548 125.331L50.9305 116.79Z" fill="url(#paint8_linear_202_164)"/>
<path d="M39.1737 129.305L32.9663 126.491L39.1737 92.2837L69.3865 126.491L59.3959 132.305L39.1737 129.305Z" fill="url(#paint9_linear_202_164)"/>
<circle cx="131.206" cy="21.7813" r="7.86944" fill="#EFE846"/>
<path d="M139.919 60.8691C134.091 58.7209 128.109 62.2667 128.109 62.2667C128.109 62.2667 120.382 68.1895 126.152 71.392C131.922 74.5946 134.972 68.2301 142.659 72.9667C150.346 77.7033 148.64 72.565 159.434 70.6688C170.228 68.7725 156.031 58.224 152.657 60.8691C149.282 63.5143 147.204 63.5542 139.919 60.8691Z" fill="url(#paint10_linear_202_164)" fill-opacity="0.54"/>
<path d="M125.505 25.2734C119.677 23.1252 113.695 26.671 113.695 26.671C113.695 26.671 105.968 32.5938 111.738 35.7963C117.508 38.9989 120.558 32.6344 128.245 37.371C135.932 42.1076 134.226 36.9693 145.02 35.0731C155.814 33.1768 141.617 22.6283 138.243 25.2734C134.868 27.9186 132.79 27.9585 125.505 25.2734Z" fill="white"/>
<path d="M67.7591 89.1059C61.9313 86.9578 55.9492 90.5035 55.9492 90.5035C55.9492 90.5035 48.2222 96.4263 53.9923 99.6288C59.7624 102.831 62.8117 96.4669 70.4987 101.204C78.1857 105.94 76.4802 100.802 87.2741 98.9056C98.0679 97.0093 83.8714 86.4608 80.4968 89.1059C77.1222 91.7511 75.0438 91.7911 67.7591 89.1059Z" fill="url(#paint11_linear_202_164)" fill-opacity="0.54"/>
<path d="M187.933 119.173C182.105 117.025 176.123 120.57 176.123 120.57C176.123 120.57 168.396 126.493 174.166 129.696C179.936 132.898 182.985 126.534 190.672 131.27C198.359 136.007 196.654 130.869 207.448 128.972C218.241 127.076 204.045 116.528 200.67 119.173C197.296 121.818 195.217 121.858 187.933 119.173Z" fill="url(#paint12_linear_202_164)" fill-opacity="0.54"/>
<path d="M101.446 118.725C96.0179 122.411 92.4017 118.152 88.018 118.725C82.7783 119.409 73.7413 126.045 79.5114 129.248C85.2815 132.45 88.3309 126.086 96.0179 130.822C103.705 135.559 101.999 130.421 112.793 128.525C123.587 126.628 118.932 116.08 115.558 118.725C112.183 121.37 107.87 114.364 101.446 118.725Z" fill="url(#paint13_linear_202_164)" fill-opacity="0.54"/>
<path d="M161.361 86.7936C155.933 90.4794 152.317 86.2208 147.933 86.7936C142.693 87.4782 133.656 94.114 139.426 97.3166C145.196 100.519 148.246 94.1547 155.933 98.8913C163.62 103.628 161.914 98.4896 172.708 96.5934C183.502 94.6971 178.847 84.1485 175.473 86.7936C172.098 89.4387 167.785 82.4325 161.361 86.7936Z" fill="url(#paint14_linear_202_164)" fill-opacity="0.54"/>
<path d="M148.988 20.9118C143.559 24.5976 139.943 20.3389 135.559 20.9117C130.32 21.5963 121.283 28.2322 127.053 31.4347C132.823 34.6373 135.872 28.2729 143.559 33.0094C151.246 37.746 149.541 32.6078 160.335 30.7115C171.128 28.8153 166.474 18.2666 163.099 20.9118C159.724 23.5569 155.411 16.5507 148.988 20.9118Z" fill="url(#paint15_linear_202_164)" fill-opacity="0.54"/>
<path d="M31.3903 99.1691C25.6737 102.39 22.4247 97.8451 18.0085 98.0508C12.7299 98.2968 3.17184 104.157 8.65521 107.829C14.1386 111.501 17.7073 105.412 24.9732 110.773C32.2391 116.133 30.9674 110.87 41.8817 109.88C52.7959 108.889 49.0357 97.9892 45.4526 100.344C41.8694 102.699 38.1544 95.358 31.3903 99.1691Z" fill="url(#paint16_linear_202_164)" fill-opacity="0.54"/>
<defs>
<radialGradient id="paint0_radial_202_164" cx="0" cy="0" r="1" gradientUnits="userSpaceOnUse" gradientTransform="translate(112.491 113.385) rotate(90) scale(52.674 139.043)">
<stop offset="0.572359" stop-color="#E2EAA4"/>
<stop offset="1" stop-color="#C9DF46"/>
</radialGradient>
<linearGradient id="paint1_linear_202_164" x1="89.3426" y1="116.322" x2="89.5574" y2="145.512" gradientUnits="userSpaceOnUse">
<stop stop-color="#B4BA82"/>
<stop offset="0.816666" stop-color="#E2E9A4"/>
</linearGradient>
<linearGradient id="paint2_linear_202_164" x1="78.5488" y1="61.7295" x2="78.5488" y2="97.1457" gradientUnits="userSpaceOnUse">
<stop stop-color="#B4BA82"/>
<stop offset="1" stop-color="#E2E9A4"/>
</linearGradient>
<linearGradient id="paint3_linear_202_164" x1="116.645" y1="49.7722" x2="116.645" y2="85.1884" gradientUnits="userSpaceOnUse">
<stop stop-color="#B4BA82"/>
<stop offset="1" stop-color="#E2E9A4"/>
</linearGradient>
<linearGradient id="paint4_linear_202_164" x1="144.546" y1="77.3884" x2="144.546" y2="112.805" gradientUnits="userSpaceOnUse">
<stop stop-color="#B4BA82"/>
<stop offset="1" stop-color="#E2E9A4"/>
</linearGradient>
<linearGradient id="paint5_linear_202_164" x1="109.243" y1="77.3884" x2="109.243" y2="112.805" gradientUnits="userSpaceOnUse">
<stop stop-color="#B4BA82"/>
<stop offset="1" stop-color="#E2E9A4"/>
</linearGradient>
<linearGradient id="paint6_linear_202_164" x1="133.185" y1="114.256" x2="127.342" y2="136.306" gradientUnits="userSpaceOnUse">
<stop stop-color="#B4BA82"/>
<stop offset="0.816666" stop-color="#E2E9A4"/>
</linearGradient>
<linearGradient id="paint7_linear_202_164" x1="173.774" y1="92.3068" x2="173.774" y2="127.723" gradientUnits="userSpaceOnUse">
<stop stop-color="#B4BA82"/>
<stop offset="1" stop-color="#E2E9A4"/>
</linearGradient>
<linearGradient id="paint8_linear_202_164" x1="60.0702" y1="77.3883" x2="60.0702" y2="112.805" gradientUnits="userSpaceOnUse">
<stop stop-color="#B4BA82"/>
<stop offset="1" stop-color="#E2E9A4"/>
</linearGradient>
<linearGradient id="paint9_linear_202_164" x1="48.3133" y1="104.548" x2="48.5281" y2="133.738" gradientUnits="userSpaceOnUse">
<stop stop-color="#B4BA82"/>
<stop offset="1" stop-color="#E2E9A4"/>
</linearGradient>
<linearGradient id="paint10_linear_202_164" x1="145.993" y1="59.7999" x2="142.671" y2="75.2877" gradientUnits="userSpaceOnUse">
<stop stop-color="white"/>
<stop offset="1" stop-color="white" stop-opacity="0"/>
</linearGradient>
<linearGradient id="paint11_linear_202_164" x1="73.8328" y1="88.0368" x2="70.5114" y2="103.525" gradientUnits="userSpaceOnUse">
<stop stop-color="white"/>
<stop offset="1" stop-color="white" stop-opacity="0"/>
</linearGradient>
<linearGradient id="paint12_linear_202_164" x1="194.006" y1="118.104" x2="190.685" y2="133.591" gradientUnits="userSpaceOnUse">
<stop stop-color="white"/>
<stop offset="1" stop-color="white" stop-opacity="0"/>
</linearGradient>
<linearGradient id="paint13_linear_202_164" x1="99.3521" y1="117.656" x2="96.0307" y2="133.143" gradientUnits="userSpaceOnUse">
<stop stop-color="white"/>
<stop offset="1" stop-color="white" stop-opacity="0"/>
</linearGradient>
<linearGradient id="paint14_linear_202_164" x1="159.267" y1="85.7244" x2="155.945" y2="101.212" gradientUnits="userSpaceOnUse">
<stop stop-color="white"/>
<stop offset="1" stop-color="white" stop-opacity="0"/>
</linearGradient>
<linearGradient id="paint15_linear_202_164" x1="146.893" y1="19.8426" x2="143.572" y2="35.3304" gradientUnits="userSpaceOnUse">
<stop stop-color="white"/>
<stop offset="1" stop-color="white" stop-opacity="0"/>
</linearGradient>
<linearGradient id="paint16_linear_202_164" x1="29.3922" y1="97.9292" x2="24.7927" y2="113.087" gradientUnits="userSpaceOnUse">
<stop stop-color="white"/>
<stop offset="1" stop-color="white" stop-opacity="0"/>
</linearGradient>
</defs>
</svg>
