<svg width="224" height="161" viewBox="0 0 224 161" fill="none" xmlns="http://www.w3.org/2000/svg">
<path d="M223.731 134.365C223.731 169.279 173.807 158.864 112.222 158.864C50.6369 158.864 0.712402 169.279 0.712402 134.365C0.712402 99.4507 50.6369 71.1472 112.222 71.1472C173.807 71.1472 223.731 99.4507 223.731 134.365Z" fill="url(#paint0_radial_202_183)"/>
<path d="M79.934 141.085L73.7266 138.271L92.2779 108.926L110.147 138.271L100.156 144.085L79.934 141.085Z" fill="url(#paint1_linear_202_183)"/>
<path d="M71.7027 97.1517L59.8013 81.1159L78.3526 51.771L97.0434 85.0091L87.9364 91.0804L71.7027 97.1517Z" fill="url(#paint2_linear_202_183)"/>
<path d="M109.8 85.1945L101.03 79.1232L119.581 49.7783L137.418 85.1945L128.311 91.2658L109.8 85.1945Z" fill="url(#paint3_linear_202_183)"/>
<path d="M137.7 112.811L128.93 106.739L163.038 73.7273L159.624 106.739L150.517 112.811H137.7Z" fill="url(#paint4_linear_202_183)"/>
<path d="M102.397 112.811L93.6274 106.739L112.179 77.3945L124.321 106.739L115.214 112.811H102.397Z" fill="url(#paint5_linear_202_183)"/>
<path d="M139.217 142.789L147.987 136.718L135.413 106.654L112.222 130.647L121.329 136.718L139.217 142.789Z" fill="url(#paint6_linear_202_183)"/>
<path d="M185.154 133.8L193.924 127.729L181.35 97.665L158.159 121.658L167.266 127.729L185.154 133.8Z" fill="url(#paint7_linear_202_183)"/>
<path d="M50.6615 116.796L44.4541 99.337L63.0054 69.9922L84.2551 115.28L72.5858 125.338L50.6615 116.796Z" fill="url(#paint8_linear_202_183)"/>
<path d="M38.9052 129.311L32.6978 126.497L38.9052 92.2898L69.118 126.497L59.1274 132.311L38.9052 129.311Z" fill="url(#paint9_linear_202_183)"/>
<path d="M139.65 60.8752C133.822 58.727 127.84 62.2728 127.84 62.2728C127.84 62.2728 120.113 68.1956 125.883 71.3981C131.653 74.6007 134.703 68.2362 142.39 72.9728C150.077 77.7094 148.371 72.5711 159.165 70.6749C169.959 68.7786 155.762 58.2301 152.388 60.8752C149.013 63.5204 146.935 63.5603 139.65 60.8752Z" fill="url(#paint10_linear_202_183)" fill-opacity="0.54"/>
<path d="M67.4903 89.1118C61.6625 86.9636 55.6804 90.5094 55.6804 90.5094C55.6804 90.5094 47.9534 96.4321 53.7235 99.6347C59.4936 102.837 62.5429 96.4728 70.2299 101.209C77.9169 105.946 76.2114 100.808 87.0053 98.9115C97.7991 97.0152 83.6026 86.4667 80.228 89.1118C76.8534 91.7569 74.775 91.7969 67.4903 89.1118Z" fill="url(#paint11_linear_202_183)" fill-opacity="0.54"/>
<path d="M187.664 119.179C181.836 117.031 175.854 120.576 175.854 120.576C175.854 120.576 168.127 126.499 173.897 129.702C179.667 132.904 182.716 126.54 190.403 131.276C198.09 136.013 196.385 130.875 207.179 128.978C217.972 127.082 203.776 116.534 200.401 119.179C197.027 121.824 194.948 121.864 187.664 119.179Z" fill="url(#paint12_linear_202_183)" fill-opacity="0.54"/>
<path d="M101.178 118.731C95.7493 122.416 92.1332 118.158 87.7495 118.731C82.5097 119.415 73.4728 126.051 79.2429 129.254C85.0129 132.456 88.0623 126.092 95.7493 130.828C103.436 135.565 101.731 130.427 112.525 128.53C123.319 126.634 118.664 116.085 115.289 118.731C111.915 121.376 107.601 114.369 101.178 118.731Z" fill="url(#paint13_linear_202_183)" fill-opacity="0.54"/>
<path d="M161.092 86.7997C155.664 90.4855 152.048 86.2269 147.664 86.7997C142.424 87.4843 133.387 94.1201 139.157 97.3227C144.928 100.525 147.977 94.1608 155.664 98.8974C163.351 103.634 161.645 98.4957 172.439 96.5995C183.233 94.7032 178.578 84.1546 175.204 86.7997C171.829 89.4448 167.516 82.4386 161.092 86.7997Z" fill="url(#paint14_linear_202_183)" fill-opacity="0.54"/>
<path d="M31.1215 99.1752C25.4049 102.396 22.1559 97.8512 17.7397 98.0569C12.4611 98.3029 2.90304 104.163 8.38641 107.835C13.8698 111.507 17.4385 105.419 24.7044 110.779C31.9703 116.139 30.6986 110.877 41.6129 109.886C52.5271 108.895 48.7669 97.9953 45.1838 100.35C41.6006 102.705 37.8856 95.3641 31.1215 99.1752Z" fill="url(#paint15_linear_202_183)" fill-opacity="0.54"/>
<defs>
<radialGradient id="paint0_radial_202_183" cx="0" cy="0" r="1" gradientUnits="userSpaceOnUse" gradientTransform="translate(112.222 113.391) rotate(90) scale(52.674 139.043)">
<stop offset="0.572359" stop-color="#E2EAA4"/>
<stop offset="1" stop-color="#C9DF46"/>
</radialGradient>
<linearGradient id="paint1_linear_202_183" x1="89.0736" y1="116.328" x2="89.2884" y2="145.518" gradientUnits="userSpaceOnUse">
<stop stop-color="#B4BA82"/>
<stop offset="0.816666" stop-color="#E2E9A4"/>
</linearGradient>
<linearGradient id="paint2_linear_202_183" x1="78.28" y1="61.7356" x2="78.28" y2="97.1518" gradientUnits="userSpaceOnUse">
<stop stop-color="#B4BA82"/>
<stop offset="1" stop-color="#E2E9A4"/>
</linearGradient>
<linearGradient id="paint3_linear_202_183" x1="116.377" y1="49.7783" x2="116.377" y2="85.1945" gradientUnits="userSpaceOnUse">
<stop stop-color="#B4BA82"/>
<stop offset="1" stop-color="#E2E9A4"/>
</linearGradient>
<linearGradient id="paint4_linear_202_183" x1="144.277" y1="77.3945" x2="144.277" y2="112.811" gradientUnits="userSpaceOnUse">
<stop stop-color="#B4BA82"/>
<stop offset="1" stop-color="#E2E9A4"/>
</linearGradient>
<linearGradient id="paint5_linear_202_183" x1="108.974" y1="77.3945" x2="108.974" y2="112.811" gradientUnits="userSpaceOnUse">
<stop stop-color="#B4BA82"/>
<stop offset="1" stop-color="#E2E9A4"/>
</linearGradient>
<linearGradient id="paint6_linear_202_183" x1="132.916" y1="114.262" x2="127.073" y2="136.312" gradientUnits="userSpaceOnUse">
<stop stop-color="#B4BA82"/>
<stop offset="0.816666" stop-color="#E2E9A4"/>
</linearGradient>
<linearGradient id="paint7_linear_202_183" x1="173.506" y1="92.3129" x2="173.506" y2="127.729" gradientUnits="userSpaceOnUse">
<stop stop-color="#B4BA82"/>
<stop offset="1" stop-color="#E2E9A4"/>
</linearGradient>
<linearGradient id="paint8_linear_202_183" x1="59.8011" y1="77.3945" x2="59.8011" y2="112.811" gradientUnits="userSpaceOnUse">
<stop stop-color="#B4BA82"/>
<stop offset="1" stop-color="#E2E9A4"/>
</linearGradient>
<linearGradient id="paint9_linear_202_183" x1="48.0448" y1="104.554" x2="48.2596" y2="133.744" gradientUnits="userSpaceOnUse">
<stop stop-color="#B4BA82"/>
<stop offset="1" stop-color="#E2E9A4"/>
</linearGradient>
<linearGradient id="paint10_linear_202_183" x1="145.724" y1="59.806" x2="142.402" y2="75.2938" gradientUnits="userSpaceOnUse">
<stop stop-color="white"/>
<stop offset="1" stop-color="white" stop-opacity="0"/>
</linearGradient>
<linearGradient id="paint11_linear_202_183" x1="73.564" y1="88.0426" x2="70.2426" y2="103.53" gradientUnits="userSpaceOnUse">
<stop stop-color="white"/>
<stop offset="1" stop-color="white" stop-opacity="0"/>
</linearGradient>
<linearGradient id="paint12_linear_202_183" x1="193.737" y1="118.11" x2="190.416" y2="133.597" gradientUnits="userSpaceOnUse">
<stop stop-color="white"/>
<stop offset="1" stop-color="white" stop-opacity="0"/>
</linearGradient>
<linearGradient id="paint13_linear_202_183" x1="99.0835" y1="117.661" x2="95.7621" y2="133.149" gradientUnits="userSpaceOnUse">
<stop stop-color="white"/>
<stop offset="1" stop-color="white" stop-opacity="0"/>
</linearGradient>
<linearGradient id="paint14_linear_202_183" x1="158.998" y1="85.7306" x2="155.677" y2="101.218" gradientUnits="userSpaceOnUse">
<stop stop-color="white"/>
<stop offset="1" stop-color="white" stop-opacity="0"/>
</linearGradient>
<linearGradient id="paint15_linear_202_183" x1="29.1234" y1="97.9353" x2="24.5239" y2="113.093" gradientUnits="userSpaceOnUse">
<stop stop-color="white"/>
<stop offset="1" stop-color="white" stop-opacity="0"/>
</linearGradient>
</defs>
</svg>
