<svg width="224" height="161" viewBox="0 0 224 161" fill="none" xmlns="http://www.w3.org/2000/svg">
<path d="M223.414 134.208C223.414 169.122 173.49 158.707 111.905 158.707C50.32 158.707 0.395508 169.122 0.395508 134.208C0.395508 99.2937 50.32 70.9902 111.905 70.9902C173.49 70.9902 223.414 99.2937 223.414 134.208Z" fill="url(#paint0_radial_202_205)"/>
<path d="M79.6176 140.927L73.4102 138.113L91.9615 108.769L109.83 138.113L99.8398 143.927L79.6176 140.927Z" fill="url(#paint1_linear_202_205)"/>
<path d="M71.3858 96.9948L59.4844 80.9589L78.0357 51.614L96.7266 84.8521L87.6195 90.9235L71.3858 96.9948Z" fill="url(#paint2_linear_202_205)"/>
<path d="M109.483 85.0375L100.713 78.9662L119.264 49.6213L137.101 85.0375L127.994 91.1088L109.483 85.0375Z" fill="url(#paint3_linear_202_205)"/>
<path d="M137.383 112.654L128.613 106.582L162.721 73.5703L159.307 106.582L150.2 112.654H137.383Z" fill="url(#paint4_linear_202_205)"/>
<path d="M102.08 112.654L93.3105 106.582L111.862 77.2375L124.005 106.582L114.898 112.654H102.08Z" fill="url(#paint5_linear_202_205)"/>
<path d="M138.9 142.632L147.67 136.561L135.096 106.497L111.905 130.49L121.012 136.561L138.9 142.632Z" fill="url(#paint6_linear_202_205)"/>
<path d="M184.837 133.643L193.607 127.572L181.033 97.5081L157.842 121.501L166.949 127.572L184.837 133.643Z" fill="url(#paint7_linear_202_205)"/>
<path d="M50.3451 116.639L44.1377 99.1801L62.689 69.8352L83.9387 115.123L72.2694 125.181L50.3451 116.639Z" fill="url(#paint8_linear_202_205)"/>
<path d="M38.5883 129.154L32.3809 126.34L38.5883 92.1328L68.8011 126.34L58.8105 132.154L38.5883 129.154Z" fill="url(#paint9_linear_202_205)"/>
<path d="M123.551 28.5855C116.237 25.8896 108.729 30.3395 108.729 30.3395C108.729 30.3395 99.0318 37.7725 106.273 41.7917C113.515 45.8109 117.342 37.8236 126.989 43.768C136.636 49.7124 134.496 43.2639 148.042 40.8841C161.588 38.5043 143.771 25.2659 139.536 28.5855C135.301 31.9052 132.693 31.9553 123.551 28.5855Z" fill="#5E7D9A"/>
<path d="M105.948 22.911C99.6256 27.2035 95.4143 22.2439 90.3091 22.911C84.207 23.7083 73.6828 31.4363 80.4025 35.1659C87.1222 38.8955 90.6734 31.4836 99.6256 36.9997C108.578 42.5159 106.592 36.532 119.162 34.3236C131.732 32.1153 126.311 19.8306 122.381 22.911C118.451 25.9915 113.428 17.8322 105.948 22.911Z" fill="#3D5E7D"/>
<path d="M88.0074 45.4376C85.6828 47.4027 80.8009 52.738 79.8702 58.3586C82.5234 56.2402 87.8653 50.6903 88.0074 45.4376Z" fill="#5E7D9A" fill-opacity="0.4"/>
<path d="M104.508 58.4662C102.184 60.4313 97.3019 65.7665 96.3712 71.3872C99.0244 69.2688 104.366 63.7189 104.508 58.4662Z" fill="#5E7D9A" fill-opacity="0.4"/>
<path d="M135.162 49.6212C132.838 51.5863 127.956 56.9216 127.025 62.5422C129.678 60.4238 135.02 54.8739 135.162 49.6212Z" fill="#5E7D9A" fill-opacity="0.4"/>
<path d="M129.787 77.4481C127.463 79.4132 122.581 84.7485 121.65 90.3691C124.303 88.2507 129.645 82.7008 129.787 77.4481Z" fill="#5E7D9A" fill-opacity="0.4"/>
<path d="M149.736 86.6515C147.411 88.6166 142.529 93.9518 141.599 99.5725C144.252 97.4541 149.594 91.9042 149.736 86.6515Z" fill="#5E7D9A" fill-opacity="0.4"/>
<path d="M88.3629 99.5219C86.0383 101.487 81.1564 106.822 80.2257 112.443C82.8789 110.324 88.2207 104.775 88.3629 99.5219Z" fill="#5E7D9A" fill-opacity="0.4"/>
<path d="M139.65 69.8652C133.823 67.717 127.841 71.2628 127.841 71.2628C127.841 71.2628 120.114 77.1856 125.884 80.3881C131.654 83.5907 134.703 77.2262 142.39 81.9628C150.077 86.6994 148.372 81.5611 159.165 79.6649C169.959 77.7686 155.763 67.2201 152.388 69.8652C149.014 72.5104 146.935 72.5503 139.65 69.8652Z" fill="url(#paint10_linear_202_205)" fill-opacity="0.54"/>
<path d="M67.4908 98.102C61.663 95.9539 55.6809 99.4996 55.6809 99.4996C55.6809 99.4996 47.9539 105.422 53.724 108.625C59.494 111.827 62.5434 105.463 70.2304 110.2C77.9174 114.936 76.2119 109.798 87.0057 107.902C97.7996 106.005 83.6031 95.4569 80.2285 98.102C76.8539 100.747 74.7755 100.787 67.4908 98.102Z" fill="url(#paint11_linear_202_205)" fill-opacity="0.54"/>
<path d="M187.664 128.169C181.836 126.021 175.854 129.567 175.854 129.567C175.854 129.567 168.127 135.489 173.897 138.692C179.667 141.894 182.717 135.53 190.404 140.267C198.091 145.003 196.385 139.865 207.179 137.969C217.973 136.072 203.776 125.524 200.402 128.169C197.027 130.814 194.949 130.854 187.664 128.169Z" fill="url(#paint12_linear_202_205)" fill-opacity="0.54"/>
<path d="M101.178 127.721C95.7493 131.407 92.1332 127.148 87.7495 127.721C82.5097 128.405 73.4728 135.041 79.2429 138.244C85.0129 141.446 88.0623 135.082 95.7493 139.819C103.436 144.555 101.731 139.417 112.525 137.521C123.319 135.624 118.664 125.076 115.289 127.721C111.915 130.366 107.601 123.36 101.178 127.721Z" fill="url(#paint13_linear_202_205)" fill-opacity="0.54"/>
<path d="M161.092 95.7899C155.664 99.4758 152.048 95.2171 147.664 95.7899C142.424 96.4745 133.387 103.11 139.157 106.313C144.928 109.515 147.977 103.151 155.664 107.888C163.351 112.624 161.645 107.486 172.439 105.59C183.233 103.693 178.578 93.1448 175.204 95.7899C171.829 98.4351 167.516 91.4288 161.092 95.7899Z" fill="url(#paint14_linear_202_205)" fill-opacity="0.54"/>
<path d="M31.1215 108.165C25.4049 111.386 22.1559 106.841 17.7397 107.047C12.4611 107.293 2.90304 113.153 8.38641 116.825C13.8698 120.497 17.4385 114.409 24.7044 119.769C31.9703 125.129 30.6986 119.867 41.6129 118.876C52.5271 117.885 48.7669 106.986 45.1838 109.34C41.6006 111.695 37.8856 104.354 31.1215 108.165Z" fill="url(#paint15_linear_202_205)" fill-opacity="0.54"/>
<defs>
<radialGradient id="paint0_radial_202_205" cx="0" cy="0" r="1" gradientUnits="userSpaceOnUse" gradientTransform="translate(111.905 113.234) rotate(90) scale(52.674 139.043)">
<stop offset="0.572359" stop-color="#ABB55F"/>
<stop offset="1" stop-color="#BED43B"/>
</radialGradient>
<linearGradient id="paint1_linear_202_205" x1="88.7572" y1="116.171" x2="88.972" y2="145.361" gradientUnits="userSpaceOnUse">
<stop stop-color="#83A3C1"/>
<stop offset="0.816666" stop-color="#ABB55F"/>
</linearGradient>
<linearGradient id="paint2_linear_202_205" x1="77.9631" y1="61.5786" x2="77.9631" y2="96.9948" gradientUnits="userSpaceOnUse">
<stop stop-color="#82A9BA"/>
<stop offset="1" stop-color="#ABB55F"/>
</linearGradient>
<linearGradient id="paint3_linear_202_205" x1="116.06" y1="49.6213" x2="116.06" y2="85.0375" gradientUnits="userSpaceOnUse">
<stop stop-color="#82A9BA"/>
<stop offset="1" stop-color="#ABB55F"/>
</linearGradient>
<linearGradient id="paint4_linear_202_205" x1="143.96" y1="77.2375" x2="143.96" y2="112.654" gradientUnits="userSpaceOnUse">
<stop stop-color="#82A9BA"/>
<stop offset="1" stop-color="#ABB55F"/>
</linearGradient>
<linearGradient id="paint5_linear_202_205" x1="108.658" y1="77.2375" x2="108.658" y2="112.654" gradientUnits="userSpaceOnUse">
<stop stop-color="#82A9BA"/>
<stop offset="1" stop-color="#ABB55F"/>
</linearGradient>
<linearGradient id="paint6_linear_202_205" x1="132.599" y1="114.105" x2="126.756" y2="136.155" gradientUnits="userSpaceOnUse">
<stop stop-color="#82A9BA"/>
<stop offset="0.946875" stop-color="#ABB55F"/>
</linearGradient>
<linearGradient id="paint7_linear_202_205" x1="173.189" y1="92.156" x2="173.189" y2="127.572" gradientUnits="userSpaceOnUse">
<stop stop-color="#83A3C1"/>
<stop offset="1" stop-color="#ABB55F"/>
</linearGradient>
<linearGradient id="paint8_linear_202_205" x1="59.4847" y1="77.2375" x2="59.4847" y2="112.654" gradientUnits="userSpaceOnUse">
<stop stop-color="#82A9BA"/>
<stop offset="1" stop-color="#ABB55F"/>
</linearGradient>
<linearGradient id="paint9_linear_202_205" x1="47.7279" y1="104.397" x2="47.9427" y2="133.587" gradientUnits="userSpaceOnUse">
<stop stop-color="#83A3C1"/>
<stop offset="1" stop-color="#ABB55F"/>
</linearGradient>
<linearGradient id="paint10_linear_202_205" x1="145.724" y1="68.796" x2="142.403" y2="84.2838" gradientUnits="userSpaceOnUse">
<stop stop-color="#5E7D9A"/>
<stop offset="1" stop-color="#5E7D9A" stop-opacity="0"/>
</linearGradient>
<linearGradient id="paint11_linear_202_205" x1="73.5645" y1="97.0328" x2="70.2431" y2="112.521" gradientUnits="userSpaceOnUse">
<stop stop-color="#5E7D9A"/>
<stop offset="1" stop-color="#5E7D9A" stop-opacity="0"/>
</linearGradient>
<linearGradient id="paint12_linear_202_205" x1="193.738" y1="127.1" x2="190.416" y2="142.588" gradientUnits="userSpaceOnUse">
<stop stop-color="#5E7D9A"/>
<stop offset="1" stop-color="#5E7D9A" stop-opacity="0"/>
</linearGradient>
<linearGradient id="paint13_linear_202_205" x1="99.0835" y1="126.652" x2="95.7621" y2="142.139" gradientUnits="userSpaceOnUse">
<stop stop-color="#3D5E7D"/>
<stop offset="1" stop-color="#3D5E7D" stop-opacity="0"/>
</linearGradient>
<linearGradient id="paint14_linear_202_205" x1="158.998" y1="94.7208" x2="155.677" y2="110.209" gradientUnits="userSpaceOnUse">
<stop stop-color="#3D5E7D"/>
<stop offset="1" stop-color="#3D5E7D" stop-opacity="0"/>
</linearGradient>
<linearGradient id="paint15_linear_202_205" x1="29.1234" y1="106.926" x2="24.5239" y2="122.083" gradientUnits="userSpaceOnUse">
<stop stop-color="#3D5E7D"/>
<stop offset="1" stop-color="#3D5E7D" stop-opacity="0"/>
</linearGradient>
</defs>
</svg>
