<svg width="224" height="161" viewBox="0 0 224 161" fill="none" xmlns="http://www.w3.org/2000/svg">
<path d="M223.145 134.52C223.145 169.434 173.22 159.018 111.635 159.018C50.0504 159.018 0.125977 169.434 0.125977 134.52C0.125977 99.6054 50.0504 71.302 111.635 71.302C173.22 71.302 223.145 99.6054 223.145 134.52Z" fill="url(#paint0_radial_202_169)"/>
<path d="M79.348 141.239L73.1406 138.425L91.692 109.081L109.561 138.425L99.5703 144.239L79.348 141.239Z" fill="url(#paint1_linear_202_169)"/>
<path d="M71.1163 97.3065L59.2148 81.2706L77.7662 51.9258L96.457 85.1639L87.35 91.2352L71.1163 97.3065Z" fill="url(#paint2_linear_202_169)"/>
<path d="M109.213 85.3493L100.443 79.278L118.995 49.9331L136.831 85.3493L127.724 91.4206L109.213 85.3493Z" fill="url(#paint3_linear_202_169)"/>
<path d="M137.113 112.965L128.344 106.894L162.452 73.8821L159.038 106.894L149.931 112.965H137.113Z" fill="url(#paint4_linear_202_169)"/>
<path d="M101.811 112.965L93.041 106.894L111.592 77.5493L123.735 106.894L114.628 112.965H101.811Z" fill="url(#paint5_linear_202_169)"/>
<path d="M138.631 142.944L147.4 136.873L134.827 106.809L111.635 130.801L120.742 136.873L138.631 142.944Z" fill="url(#paint6_linear_202_169)"/>
<path d="M184.568 133.955L193.337 127.884L180.764 97.8198L157.572 121.813L166.679 127.884L184.568 133.955Z" fill="url(#paint7_linear_202_169)"/>
<path d="M50.0756 116.951L43.8682 99.4918L62.4195 70.147L83.6692 115.435L71.9999 125.492L50.0756 116.951Z" fill="url(#paint8_linear_202_169)"/>
<path d="M38.3187 129.466L32.1113 126.652L38.3187 92.4446L68.5315 126.652L58.5409 132.466L38.3187 129.466Z" fill="url(#paint9_linear_202_169)"/>
<defs>
<radialGradient id="paint0_radial_202_169" cx="0" cy="0" r="1" gradientUnits="userSpaceOnUse" gradientTransform="translate(111.635 113.545) rotate(90) scale(52.674 139.043)">
<stop offset="0.572359" stop-color="#E2EAA4"/>
<stop offset="1" stop-color="#C9DF46"/>
</radialGradient>
<linearGradient id="paint1_linear_202_169" x1="88.4876" y1="116.483" x2="88.7024" y2="145.673" gradientUnits="userSpaceOnUse">
<stop stop-color="white"/>
<stop offset="0.816666" stop-color="#E2E9A4"/>
</linearGradient>
<linearGradient id="paint2_linear_202_169" x1="77.6936" y1="61.8904" x2="77.6936" y2="97.3066" gradientUnits="userSpaceOnUse">
<stop stop-color="white"/>
<stop offset="1" stop-color="#E2E9A4"/>
</linearGradient>
<linearGradient id="paint3_linear_202_169" x1="115.79" y1="49.9331" x2="115.79" y2="85.3493" gradientUnits="userSpaceOnUse">
<stop stop-color="white"/>
<stop offset="1" stop-color="#E2E9A4"/>
</linearGradient>
<linearGradient id="paint4_linear_202_169" x1="143.691" y1="77.5493" x2="143.691" y2="112.965" gradientUnits="userSpaceOnUse">
<stop stop-color="white"/>
<stop offset="1" stop-color="#E2E9A4"/>
</linearGradient>
<linearGradient id="paint5_linear_202_169" x1="108.388" y1="77.5493" x2="108.388" y2="112.965" gradientUnits="userSpaceOnUse">
<stop stop-color="white"/>
<stop offset="1" stop-color="#E2E9A4"/>
</linearGradient>
<linearGradient id="paint6_linear_202_169" x1="132.329" y1="114.416" x2="126.487" y2="136.467" gradientUnits="userSpaceOnUse">
<stop stop-color="white"/>
<stop offset="0.816666" stop-color="#E2E9A4"/>
</linearGradient>
<linearGradient id="paint7_linear_202_169" x1="172.919" y1="92.4677" x2="172.919" y2="127.884" gradientUnits="userSpaceOnUse">
<stop stop-color="white"/>
<stop offset="1" stop-color="#E2E9A4"/>
</linearGradient>
<linearGradient id="paint8_linear_202_169" x1="59.2152" y1="77.5492" x2="59.2152" y2="112.965" gradientUnits="userSpaceOnUse">
<stop stop-color="white"/>
<stop offset="1" stop-color="#E2E9A4"/>
</linearGradient>
<linearGradient id="paint9_linear_202_169" x1="47.4583" y1="104.709" x2="47.6731" y2="133.899" gradientUnits="userSpaceOnUse">
<stop stop-color="white"/>
<stop offset="1" stop-color="#E2E9A4"/>
</linearGradient>
</defs>
</svg>
