<svg width="224" height="161" viewBox="0 0 224 161" fill="none" xmlns="http://www.w3.org/2000/svg">
<path d="M223.414 134.208C223.414 169.122 173.49 158.707 111.905 158.707C50.3197 158.707 0.395264 169.122 0.395264 134.208C0.395264 99.2937 50.3197 70.9902 111.905 70.9902C173.49 70.9902 223.414 99.2937 223.414 134.208Z" fill="url(#paint0_radial_202_168)"/>
<path d="M79.6171 140.927L73.4097 138.113L91.961 108.769L109.83 138.113L99.8393 143.927L79.6171 140.927Z" fill="url(#paint1_linear_202_168)"/>
<path d="M71.3858 96.9948L59.4844 80.9589L78.0357 51.614L96.7266 84.8521L87.6195 90.9235L71.3858 96.9948Z" fill="url(#paint2_linear_202_168)"/>
<path d="M109.482 85.0375L100.712 78.9662L119.264 49.6213L137.1 85.0375L127.993 91.1088L109.482 85.0375Z" fill="url(#paint3_linear_202_168)"/>
<path d="M137.383 112.654L128.613 106.582L162.721 73.5703L159.307 106.582L150.2 112.654H137.383Z" fill="url(#paint4_linear_202_168)"/>
<path d="M102.08 112.654L93.3101 106.582L111.861 77.2375L124.004 106.582L114.897 112.654H102.08Z" fill="url(#paint5_linear_202_168)"/>
<path d="M138.9 142.632L147.67 136.561L135.096 106.497L111.905 130.49L121.012 136.561L138.9 142.632Z" fill="url(#paint6_linear_202_168)"/>
<path d="M184.837 133.643L193.607 127.572L181.033 97.5081L157.842 121.501L166.949 127.572L184.837 133.643Z" fill="url(#paint7_linear_202_168)"/>
<path d="M50.3446 116.639L44.1372 99.1801L62.6885 69.8352L83.9382 115.123L72.2689 125.181L50.3446 116.639Z" fill="url(#paint8_linear_202_168)"/>
<path d="M38.5878 129.154L32.3804 126.34L38.5878 92.1328L68.8006 126.34L58.81 132.154L38.5878 129.154Z" fill="url(#paint9_linear_202_168)"/>
<path d="M115.194 48.2048L119.266 40.5403H127.649L122.14 46.2886L126.451 49.6418L110.883 71.4375L119.266 51.0789L115.194 48.2048Z" fill="#EFE846"/>
<path d="M123.55 28.5855C116.236 25.8896 108.729 30.3395 108.729 30.3395C108.729 30.3395 99.0313 37.7725 106.273 41.7917C113.514 45.8109 117.341 37.8236 126.988 43.768C136.635 49.7124 134.495 43.2639 148.041 40.8841C161.588 38.5043 143.771 25.2659 139.536 28.5855C135.301 31.9052 132.692 31.9553 123.55 28.5855Z" fill="#5E7D9A"/>
<path d="M105.948 22.911C99.6256 27.2035 95.4143 22.2439 90.3091 22.911C84.207 23.7083 73.6828 31.4363 80.4025 35.1659C87.1222 38.8955 90.6734 31.4836 99.6256 36.9997C108.578 42.5159 106.592 36.532 119.162 34.3236C131.732 32.1153 126.311 19.8306 122.381 22.911C118.451 25.9915 113.428 17.8322 105.948 22.911Z" fill="#3D5E7D"/>
<path d="M88.0074 45.4376C85.6828 47.4027 80.8009 52.738 79.8702 58.3586C82.5234 56.2402 87.8653 50.6903 88.0074 45.4376Z" fill="#5E7D9A" fill-opacity="0.4"/>
<path d="M104.508 58.4662C102.184 60.4313 97.3019 65.7665 96.3712 71.3872C99.0244 69.2688 104.366 63.7189 104.508 58.4662Z" fill="#5E7D9A" fill-opacity="0.4"/>
<path d="M142.944 46.5058C140.619 48.4708 135.737 53.8061 134.807 59.4267C137.46 57.3083 142.802 51.7584 142.944 46.5058Z" fill="#5E7D9A" fill-opacity="0.4"/>
<path d="M143.299 62.4662C140.975 64.4313 136.093 69.7665 135.162 75.3872C137.815 73.2688 143.157 67.7189 143.299 62.4662Z" fill="#5E7D9A" fill-opacity="0.4"/>
<path d="M149.735 86.6515C147.411 88.6166 142.529 93.9518 141.598 99.5725C144.251 97.4541 149.593 91.9042 149.735 86.6515Z" fill="#5E7D9A" fill-opacity="0.4"/>
<path d="M88.3624 99.5219C86.0378 101.487 81.1559 106.822 80.2252 112.443C82.8784 110.324 88.2202 104.775 88.3624 99.5219Z" fill="#5E7D9A" fill-opacity="0.4"/>
<path d="M139.65 69.8652C133.822 67.717 127.84 71.2628 127.84 71.2628C127.84 71.2628 120.113 77.1856 125.883 80.3881C131.653 83.5907 134.703 77.2262 142.39 81.9628C150.077 86.6994 148.371 81.5611 159.165 79.6649C169.959 77.7686 155.762 67.2201 152.388 69.8652C149.013 72.5104 146.935 72.5503 139.65 69.8652Z" fill="url(#paint10_linear_202_168)" fill-opacity="0.54"/>
<path d="M67.4903 98.102C61.6625 95.9539 55.6804 99.4996 55.6804 99.4996C55.6804 99.4996 47.9534 105.422 53.7235 108.625C59.4936 111.827 62.5429 105.463 70.2299 110.2C77.9169 114.936 76.2114 109.798 87.0053 107.902C97.7991 106.005 83.6026 95.4569 80.228 98.102C76.8534 100.747 74.775 100.787 67.4903 98.102Z" fill="url(#paint11_linear_202_168)" fill-opacity="0.54"/>
<path d="M187.664 128.169C181.836 126.021 175.854 129.567 175.854 129.567C175.854 129.567 168.127 135.489 173.897 138.692C179.667 141.894 182.716 135.53 190.403 140.267C198.09 145.003 196.385 139.865 207.179 137.969C217.972 136.072 203.776 125.524 200.401 128.169C197.027 130.814 194.948 130.854 187.664 128.169Z" fill="url(#paint12_linear_202_168)" fill-opacity="0.54"/>
<path d="M101.177 127.721C95.7488 131.407 92.1327 127.148 87.749 127.721C82.5092 128.405 73.4723 135.041 79.2424 138.244C85.0125 141.446 88.0618 135.082 95.7488 139.819C103.436 144.555 101.73 139.417 112.524 137.521C123.318 135.624 118.663 125.076 115.289 127.721C111.914 130.366 107.601 123.36 101.177 127.721Z" fill="url(#paint13_linear_202_168)" fill-opacity="0.54"/>
<path d="M161.092 95.7899C155.664 99.4758 152.048 95.2171 147.664 95.7899C142.424 96.4745 133.387 103.11 139.157 106.313C144.928 109.515 147.977 103.151 155.664 107.888C163.351 112.624 161.645 107.486 172.439 105.59C183.233 103.693 178.578 93.1448 175.204 95.7899C171.829 98.4351 167.516 91.4288 161.092 95.7899Z" fill="url(#paint14_linear_202_168)" fill-opacity="0.54"/>
<path d="M31.1215 108.165C25.4049 111.386 22.1559 106.841 17.7397 107.047C12.4611 107.293 2.90304 113.153 8.38641 116.825C13.8698 120.497 17.4385 114.409 24.7044 119.769C31.9703 125.129 30.6986 119.867 41.6129 118.876C52.5271 117.885 48.7669 106.986 45.1838 109.34C41.6006 111.695 37.8856 104.354 31.1215 108.165Z" fill="url(#paint15_linear_202_168)" fill-opacity="0.54"/>
<defs>
<radialGradient id="paint0_radial_202_168" cx="0" cy="0" r="1" gradientUnits="userSpaceOnUse" gradientTransform="translate(111.905 113.234) rotate(90) scale(52.674 139.043)">
<stop offset="0.572359" stop-color="#ABB55F"/>
<stop offset="1" stop-color="#BED43B"/>
</radialGradient>
<linearGradient id="paint1_linear_202_168" x1="88.7567" y1="116.171" x2="88.9715" y2="145.361" gradientUnits="userSpaceOnUse">
<stop stop-color="#83A3C1"/>
<stop offset="0.816666" stop-color="#ABB55F"/>
</linearGradient>
<linearGradient id="paint2_linear_202_168" x1="77.9631" y1="61.5786" x2="77.9631" y2="96.9948" gradientUnits="userSpaceOnUse">
<stop stop-color="#82A9BA"/>
<stop offset="1" stop-color="#ABB55F"/>
</linearGradient>
<linearGradient id="paint3_linear_202_168" x1="116.059" y1="49.6213" x2="116.059" y2="85.0375" gradientUnits="userSpaceOnUse">
<stop stop-color="#82A9BA"/>
<stop offset="1" stop-color="#ABB55F"/>
</linearGradient>
<linearGradient id="paint4_linear_202_168" x1="143.96" y1="77.2375" x2="143.96" y2="112.654" gradientUnits="userSpaceOnUse">
<stop stop-color="#82A9BA"/>
<stop offset="1" stop-color="#ABB55F"/>
</linearGradient>
<linearGradient id="paint5_linear_202_168" x1="108.657" y1="77.2375" x2="108.657" y2="112.654" gradientUnits="userSpaceOnUse">
<stop stop-color="#82A9BA"/>
<stop offset="1" stop-color="#ABB55F"/>
</linearGradient>
<linearGradient id="paint6_linear_202_168" x1="132.599" y1="114.105" x2="126.756" y2="136.155" gradientUnits="userSpaceOnUse">
<stop stop-color="#82A9BA"/>
<stop offset="0.946875" stop-color="#ABB55F"/>
</linearGradient>
<linearGradient id="paint7_linear_202_168" x1="173.189" y1="92.156" x2="173.189" y2="127.572" gradientUnits="userSpaceOnUse">
<stop stop-color="#83A3C1"/>
<stop offset="1" stop-color="#ABB55F"/>
</linearGradient>
<linearGradient id="paint8_linear_202_168" x1="59.4842" y1="77.2375" x2="59.4842" y2="112.654" gradientUnits="userSpaceOnUse">
<stop stop-color="#82A9BA"/>
<stop offset="1" stop-color="#ABB55F"/>
</linearGradient>
<linearGradient id="paint9_linear_202_168" x1="47.7274" y1="104.397" x2="47.9422" y2="133.587" gradientUnits="userSpaceOnUse">
<stop stop-color="#83A3C1"/>
<stop offset="1" stop-color="#ABB55F"/>
</linearGradient>
<linearGradient id="paint10_linear_202_168" x1="145.724" y1="68.796" x2="142.402" y2="84.2838" gradientUnits="userSpaceOnUse">
<stop stop-color="#5E7D9A"/>
<stop offset="1" stop-color="#5E7D9A" stop-opacity="0"/>
</linearGradient>
<linearGradient id="paint11_linear_202_168" x1="73.564" y1="97.0328" x2="70.2426" y2="112.521" gradientUnits="userSpaceOnUse">
<stop stop-color="#5E7D9A"/>
<stop offset="1" stop-color="#5E7D9A" stop-opacity="0"/>
</linearGradient>
<linearGradient id="paint12_linear_202_168" x1="193.737" y1="127.1" x2="190.416" y2="142.588" gradientUnits="userSpaceOnUse">
<stop stop-color="#5E7D9A"/>
<stop offset="1" stop-color="#5E7D9A" stop-opacity="0"/>
</linearGradient>
<linearGradient id="paint13_linear_202_168" x1="99.083" y1="126.652" x2="95.7616" y2="142.139" gradientUnits="userSpaceOnUse">
<stop stop-color="#3D5E7D"/>
<stop offset="1" stop-color="#3D5E7D" stop-opacity="0"/>
</linearGradient>
<linearGradient id="paint14_linear_202_168" x1="158.998" y1="94.7208" x2="155.677" y2="110.209" gradientUnits="userSpaceOnUse">
<stop stop-color="#3D5E7D"/>
<stop offset="1" stop-color="#3D5E7D" stop-opacity="0"/>
</linearGradient>
<linearGradient id="paint15_linear_202_168" x1="29.1234" y1="106.926" x2="24.5239" y2="122.083" gradientUnits="userSpaceOnUse">
<stop stop-color="#3D5E7D"/>
<stop offset="1" stop-color="#3D5E7D" stop-opacity="0"/>
</linearGradient>
</defs>
</svg>
